/vscmnt/brussel_pixiu_data/_data_brussel/112/vsc11236/PredSimResults/SUBJ07opt3D/trackIG/worker_05.mot
version=1
nRows=7
nColumns=50
inDegrees=yes
endheader
                time	         pelvis_tilt	         pelvis_list	     pelvis_rotation	           pelvis_tx	           pelvis_ty	           pelvis_tz	       hip_flexion_r	     hip_adduction_r	      hip_rotation_r	        knee_angle_r	       ankle_angle_r	         mtp_angle_r	       hip_flexion_l	     hip_adduction_l	      hip_rotation_l	        knee_angle_l	       ankle_angle_l	         mtp_angle_l	    lumbar_extension	      lumbar_bending	     lumbar_rotation	 ercspn_r/activation	 intobl_r/activation	 extobl_r/activation	    abd_r/activation	    add_r/activation	hamstrings_r/activation	bifemsh_r/activation	glut_max_r/activation	iliopsoas_r/activation	rect_fem_r/activation	  vasti_r/activation	gastroc_r/activation	 soleus_r/activation	tib_ant_r/activation	 ercspn_l/activation	 intobl_l/activation	 extobl_l/activation	    abd_l/activation	    add_l/activation	hamstrings_l/activation	bifemsh_l/activation	glut_max_l/activation	iliopsoas_l/activation	rect_fem_l/activation	  vasti_l/activation	gastroc_l/activation	 soleus_l/activation	tib_ant_l/activation	
          0.00000000	         -3.14656694	         -0.11568226	          7.82718341	          0.00000000	          0.85822179	         -0.01535926	         27.41365015	         -2.34736439	         -3.36594728	         -6.06928148	          1.07854651	          0.24966139	        -12.42761566	          0.26241478	          3.35795660	         -7.92681826	         10.55406816	         22.76579452	         -9.04380549	         -2.68563401	         -0.40935656	          0.13083995	          0.15639581	          0.00999999	          0.01406735	          0.09350752	          0.04378335	          0.03183832	          0.02709220	          0.02274327	          0.00999999	          0.01201013	          0.00999999	          0.00999999	          0.35796583	          0.05707032	          0.00999999	          0.00999999	          0.04663183	          0.00999999	          0.01000000	          0.12246079	          0.01095569	          0.13173135	          0.00999999	          0.00999999	          0.14455913	          0.29032432	          0.02080618	
          0.01206086	         -3.18185523	         -0.07055477	          7.85988361	          0.01383934	          0.85681483	         -0.01483181	         27.10482138	         -2.14039339	         -3.10612197	         -6.95093373	          0.77707920	          0.25051770	        -12.95916007	          0.18619295	          3.01905594	         -8.59228995	          9.95058569	         24.18324432	         -8.95169543	         -2.32424871	         -0.63305500	          0.11265786	          0.13021977	          0.00999999	          0.01171289	          0.11274575	          0.03645531	          0.09690580	          0.07320105	          0.01893672	          0.00999999	          0.00999999	          0.01442435	          0.01365772	          0.35404430	          0.09253559	          0.00999999	          0.00999999	          0.03882704	          0.00999999	          0.01000003	          0.10196447	          0.01388025	          0.10968342	          0.03001156	          0.00999999	          0.12178653	          0.28114082	          0.01732384	
          0.02412171	         -3.21031028	         -0.02354314	          7.84955128	          0.02794533	          0.85558251	         -0.01423450	         26.73483736	         -1.97346416	         -2.80008465	         -7.95084230	          0.45418325	          0.24241242	        -13.45230429	          0.11593287	          2.64895347	         -9.35872498	          9.22383819	         25.59293560	         -8.84469403	         -1.94891789	         -0.86140140	          0.11151379	          0.12093946	          0.00999999	          0.03828311	          0.10418901	          0.04341772	          0.10334838	          0.07891570	          0.01576727	          0.00999999	          0.00999999	          0.01201014	          0.01137182	          0.40156151	          0.09900378	          0.00999999	          0.00999999	          0.03232854	          0.00999999	          0.01000001	          0.08489863	          0.01155710	          0.09132565	          0.02498851	          0.00999999	          0.10140306	          0.26780405	          0.01442434	
          0.03618257	         -3.23377836	          0.03503497	          7.79297146	          0.04216692	          0.85465055	         -0.01353744	         26.35646161	         -1.82935922	         -2.54087074	         -8.91896141	          0.04717037	          0.23158372	        -13.84326966	          0.06433045	          2.25533028	        -10.31676651	          8.35219060	         26.98849162	         -8.74069197	         -1.57744761	         -1.08888400	          0.12644510	          0.10069777	          0.00999999	          0.08147203	          0.12057662	          0.04231264	          0.08605092	          0.08941006	          0.01312830	          0.00999999	          0.00999999	          0.00999999	          0.00999999	          0.43354587	          0.11953747	          0.00999999	          0.00999999	          0.02691770	          0.00999999	          0.01000000	          0.07068911	          0.00999999	          0.07604044	          0.02080618	          0.01460397	          0.08443119	          0.25082877	          0.01201013	
          0.04824343	         -3.25196354	          0.10936737	          7.69297076	          0.05640320	          0.85413596	         -0.01274886	         26.02354231	         -1.70147356	         -2.34049826	         -9.98726836	         -0.26366701	          0.21835146	        -14.09181410	          0.03676954	          1.83912834	        -11.51440133	          7.30126850	         28.35310677	         -8.64657079	         -1.21643190	         -1.31130280	          0.13123759	          0.08384394	          0.00999999	          0.11939902	          0.13613785	          0.04385010	          0.07164854	          0.10038197	          0.01093101	          0.00999999	          0.00999999	          0.00999999	          0.00999999	          0.44689262	          0.14970429	          0.00999999	          0.00999999	          0.02241247	          0.00999999	          0.01000001	          0.05885785	          0.00999999	          0.06331352	          0.01732384	          0.02131651	          0.07029990	          0.22879225	          0.00999999	
          0.06030428	         -3.26471886	          0.19761759	          7.55433216	          0.07057862	          0.85414318	         -0.01187975	         25.76179412	         -1.58791948	         -2.18682259	        -11.21830378	         -0.35438452	          0.20328521	        -14.16946520	          0.03110209	          1.39668389	        -12.98085732	          6.05837635	         29.62306747	         -8.56294567	         -0.86841738	         -1.52760978	          0.13360426	          0.06981094	          0.00999999	          0.14980300	          0.15814487	          0.04390436	          0.05965669	          0.11161081	          0.00999999	          0.00999999	          0.01678841	          0.00999999	          0.00999999	          0.43493816	          0.17770233	          0.00999999	          0.00999999	          0.01866129	          0.02405054	          0.01000002	          0.04900678	          0.00999999	          0.05271671	          0.01442434	          0.02439350	          0.05853378	          0.20478930	          0.00999999	
          0.07236514	         -3.27232497	          0.29962199	          7.38019297	          0.08462117	          0.85474348	         -0.01094185	         25.55764707	         -1.48620918	         -2.06336362	        -12.58716970	         -0.16636024	          0.19121522	        -14.02645839	          0.04779679	          0.91736956	        -14.79343575	          4.66006997	         30.67136879	         -8.49064778	         -0.53733554	         -1.73685182	          0.13653535	          0.05812666	          0.00999999	          0.16670240	          0.18447236	          0.04598700	          0.04967193	          0.11989971	          0.00999999	          0.00999999	          0.02449351	          0.00999999	          0.00999999	          0.40480730	          0.19301496	          0.00999999	          0.00999999	          0.01553794	          0.05198610	          0.01000007	          0.04080450	          0.00999999	          0.04389349	          0.01201013	          0.02080618	          0.04873696	          0.17150833	          0.00999999	
